<?xml version="1.0" encoding="utf-8"?>
<!-- Generator: Adobe Illustrator 23.0.2, SVG Export Plug-In . SVG Version: 6.00 Build 0)  -->
<svg version="1.1" id="Capa_1" xmlns="http://www.w3.org/2000/svg" xmlns:xlink="http://www.w3.org/1999/xlink" x="0px" y="0px"
	 viewBox="0 0 500 136" style="enable-background:new 0 0 500 136;" xml:space="preserve">
<style type="text/css">
	.st0{fill-rule:evenodd;clip-rule:evenodd;fill:#FFFFFF;}
	.st1{fill-rule:evenodd;clip-rule:evenodd;fill:#000307;}
	.st2{fill:#000307;}
	.st3{fill:#BC117B;}
	.st4{fill:none;stroke:#BC117B;stroke-width:0.216;stroke-miterlimit:22.9256;}
	.st5{fill-rule:evenodd;clip-rule:evenodd;fill:#BC117B;}
</style>
<g>
	<path class="st0" d="M72.3,13h354.5c4.6,0,8.3,3.7,8.3,8.2V117c0,4.5-3.7,8.2-8.3,8.2H72.3c-4.6,0-8.3-3.7-8.3-8.2V21.1
		C64,16.6,67.7,13,72.3,13"/>
	<path class="st1" d="M410,67.5h0.9c0.4,0,0.7-0.1,0.9-0.2c0.2-0.1,0.2-0.3,0.2-0.5c0-0.1-0.1-0.3-0.1-0.4c-0.1-0.1-0.2-0.2-0.3-0.2
		c-0.1-0.1-0.4-0.1-0.8-0.1H410V67.5z M409.2,70.1v-4.6h1.6c0.5,0,0.9,0.1,1.2,0.1c0.2,0.1,0.5,0.2,0.6,0.4s0.2,0.4,0.2,0.7
		s-0.1,0.6-0.3,0.9c-0.3,0.2-0.6,0.4-1,0.4c0.2,0.1,0.3,0.1,0.4,0.3c0.2,0.2,0.4,0.5,0.7,0.9l0.5,0.9h-0.9l-0.4-0.7
		c-0.3-0.6-0.6-0.9-0.8-1.1c-0.2-0.1-0.4-0.1-0.6-0.1H410v1.9L409.2,70.1L409.2,70.1z M411.1,64.2c-0.6,0-1.2,0.2-1.7,0.4
		c-0.6,0.3-1,0.8-1.3,1.3c-0.3,0.6-0.5,1.2-0.5,1.8s0.2,1.2,0.5,1.8c0.3,0.5,0.7,1,1.3,1.3c0.6,0.3,1.1,0.5,1.7,0.5s1.2-0.2,1.7-0.5
		c0.6-0.3,1-0.8,1.3-1.3c0.3-0.6,0.5-1.2,0.5-1.8s-0.2-1.2-0.5-1.8s-0.7-1-1.3-1.3C412.2,64.4,411.7,64.2,411.1,64.2z M411.1,63.5
		c0.7,0,1.4,0.2,2.1,0.6c0.7,0.4,1.2,0.9,1.6,1.6c0.4,0.7,0.6,1.4,0.6,2.1c0,0.7-0.2,1.4-0.6,2.1c-0.4,0.7-0.9,1.2-1.6,1.6
		c-0.6,0.4-1.4,0.6-2.1,0.6s-1.4-0.2-2.1-0.6c-0.7-0.4-1.2-0.9-1.6-1.6c-0.4-0.7-0.6-1.4-0.6-2.1c0-0.8,0.2-1.4,0.6-2.1
		c0.4-0.7,0.9-1.2,1.6-1.6S410.4,63.5,411.1,63.5z"/>
	<path class="st2" d="M392,38.1h6v3c1.8-1.2,3.7-2,5.7-2.6s4.1-0.9,6.2-0.9c1.7,0,3.4,0.2,5.2,0.7l-3.1,2.2
		c-1.2-0.2-2.3-0.4-3.1-0.4c-2,0-3.9,0.4-5.7,1.1c-1.8,0.7-3.2,1.8-4.2,3.3c-0.7,1.1-1.1,3.5-1.1,7v6.8h-6V38.1H392z"/>
	<path class="st2" d="M243.3,37.4h5.2v3.8c2.1-1.4,4.4-2.5,7-3.2s5.4-1.1,8.4-1.1s5.7,0.4,8.1,1.2s4.1,1.9,5.2,3.2s1.7,3.4,1.7,6.3
		v10.7h-5.2v-10c0-2.4-0.2-4-0.6-4.8c-0.7-1.4-1.8-2.4-3.5-3.1c-1.7-0.7-4-1-6.8-1c-3.2,0-6,0.5-8.5,1.6s-4.2,2.4-5,4
		c-0.5,1-0.8,2.9-0.8,5.7v7.6h-5.2L243.3,37.4L243.3,37.4z"/>
	<rect x="224.9" y="38.1" class="st2" width="5.6" height="20.2"/>
	<path class="st3" d="M227.5,25.6c3.2,0,5.8,0.5,8.1,1.5c2.2,1,3.3,2.2,3.3,3.6c0,1.4-1.1,2.6-3.3,3.5c-2.2,1-4.9,1.5-8.1,1.5
		c-3.1,0-5.8-0.5-8-1.5s-3.3-2.2-3.3-3.5c0-1.4,1.1-2.6,3.3-3.6S224.4,25.6,227.5,25.6z"/>
	<path class="st4" d="M227.5,25.6c3.2,0,5.8,0.5,8.1,1.5c2.2,1,3.3,2.2,3.3,3.6c0,1.4-1.1,2.6-3.3,3.5c-2.2,1-4.9,1.5-8.1,1.5
		c-3.1,0-5.8-0.5-8-1.5s-3.3-2.2-3.3-3.5c0-1.4,1.1-2.6,3.3-3.6S224.4,25.6,227.5,25.6z"/>
	<rect x="183" y="28.1" class="st2" width="6.6" height="30.2"/>
	<rect x="204.8" y="28.1" class="st2" width="6.5" height="30.2"/>
	<polygon class="st2" points="76.6,29.5 83,29.5 83,41.6 115.5,41.6 115.5,29.5 121.9,29.5 121.9,58.3 115.5,58.3 115.5,44.4 
		83,44.4 83,58.3 76.6,58.3 	"/>
	<path class="st2" d="M243.5,70.2h5.6v1.9c2.3-0.7,4.8-1.3,7.6-1.6c2.7-0.3,5.8-0.5,9-0.5c3.3,0,6.2,0.2,8.8,0.6
		c2.5,0.4,4.5,0.9,5.7,1.6c1.2,0.7,1.8,1.7,1.8,3.2v5.4h-5.7v-5c0-1.2-0.2-2-0.6-2.4c-0.7-0.7-2-1.2-3.8-1.6
		c-1.9-0.4-4.3-0.5-7.3-0.5c-3.4,0-6.5,0.2-9.2,0.8c-2.7,0.5-4.5,1.2-5.4,2.1c-0.6,0.5-0.8,1.4-0.8,2.8v3.9h-5.6V70.2H243.5z"/>
	<rect x="167.5" y="70.1" class="st2" width="8.4" height="10.6"/>
	<rect x="345.8" y="70.3" class="st2" width="8.4" height="10.6"/>
	<path class="st2" d="M171.5,66.1c1.4,0,2.6,0.1,3.6,0.4c1,0.2,1.5,0.5,1.5,0.8s-0.5,0.6-1.5,0.9c-1,0.2-2.2,0.4-3.6,0.4
		c-1.4,0-2.6-0.1-3.6-0.4c-1-0.3-1.5-0.5-1.5-0.9c0-0.3,0.5-0.6,1.5-0.8C168.9,66.2,170,66.1,171.5,66.1"/>
	<path class="st2" d="M349.7,66.3c1.4,0,2.6,0.1,3.6,0.3c1,0.3,1.5,0.5,1.5,0.9c0,0.3-0.5,0.6-1.5,0.9c-1,0.2-2.2,0.4-3.6,0.4
		s-2.6-0.1-3.6-0.4c-1-0.2-1.5-0.5-1.5-0.9c0-0.3,0.5-0.6,1.5-0.9C347.1,66.4,348.3,66.3,349.7,66.3"/>
	<path class="st2" d="M138.7,71.5c-6.1,0-12.2,1.6-12.3,4.1c0,1.7,2.5,2.6,7.1,3.3c1.3,0.2,4.5,0.4,7.5,0.4c5.5,0,9.1-0.2,12.6-0.8
		l1.3,1.5c-4,0.7-11.3,0.7-15.5,0.7c-2.6,0-21.2-0.4-21.2-5c0-3.8,7.4-4.4,9.8-4.8c1.7-0.3,7.2-0.8,11.1-0.8c5,0,10.8,0,15.8,0.2
		l-1.6,1.2C148.6,71.4,140,71.5,138.7,71.5"/>
	<path class="st2" d="M317.1,71.7c-6.1,0-12.2,1.6-12.3,4.1c-0.1,1.7,2.4,2.7,7,3.4c1.3,0.2,4.5,0.3,7.4,0.3c5.5,0,9.1-0.1,12.7-0.8
		l1.3,1.4c-4,0.8-11.2,0.8-15.5,0.8c-2.6,0-21.2-0.3-21.2-5c0-3.8,7.4-4.4,9.8-4.8c1.7-0.3,7.2-0.8,11.1-0.8c5,0,10.8,0,15.9,0.2
		l-1.6,1.2C327,71.6,318.4,71.7,317.1,71.7"/>
	<path class="st2" d="M106.7,71.1l-4.1,0.9c-3.4-0.7-6.7-1.1-10-1.1c-2,0-3.8,0.2-5.3,0.4c-1.5,0.3-2.2,0.6-2.2,1
		c0,0.3,0.6,0.7,1.8,1c1.2,0.3,3.8,0.7,7.6,1.1c4.8,0.5,7.9,1,9.6,1.5s2.5,1.1,2.5,1.7c0,0.9-1.4,1.6-4.3,2.2
		c-2.8,0.6-6.4,0.9-10.7,0.9c-2.9,0-5.6-0.1-8.2-0.4s-4.7-0.6-6.4-1.1l4-1c3.2,0.8,6.7,1.2,10.3,1.2c2.6,0,4.7-0.2,6.5-0.5
		c1.8-0.4,2.7-0.8,2.7-1.2c0-0.4-0.6-0.7-1.8-1.1c-1.2-0.3-3.8-0.7-8-1.2c-4.5-0.5-7.5-1-9.1-1.5s-2.4-1-2.4-1.7
		c0-0.8,1.3-1.5,3.8-2c2.6-0.5,5.8-0.8,9.7-0.8C97.5,69.6,102.1,70.1,106.7,71.1"/>
	<path class="st2" d="M152.5,56.4c-5.9-0.3-12.2-3.2-12.1-8.3l31.5,0.3c-0.1-2.8-1.4-5.1-4.1-7c-3.8-2.6-8.8-4-15.1-4
		c-6.1,0-11,1.3-14.7,3.9c-2.9,2-4.4,4.3-4.4,6.9c0,9,14.4,10,19.3,10.2c6,0.2,9.6-0.2,16-1.3l-0.7-1.8
		C162.7,56.1,158.2,56.6,152.5,56.4z M143.3,43c2.6-1.1,5.8-1.6,9.4-1.6c2.2,0,4.3,0.2,6.3,0.6c2,0.4,3.6,1,4.9,1.7
		c1.2,0.7,2.2,1.6,2.8,2.8H139C139.9,44.9,141.4,43.8,143.3,43z"/>
	<path class="st2" d="M361.6,56.2c-5.9-0.3-12.2-3.2-12.1-8.3l31.5,0.3c-0.1-2.8-1.4-5.1-4.1-7c-3.8-2.6-8.8-3.9-15.1-3.9
		c-6.1,0-11,1.3-14.7,3.8c-2.9,2-4.3,4.3-4.3,6.9c0,9,14.4,10,19.3,10.2c6,0.2,9.6-0.1,16-1.3l-0.8-1.8
		C371.8,56,367.4,56.5,361.6,56.2z M352.4,41.6c2.6-1.3,5.8-1.9,9.4-1.9c2.2,0,4.3,0.2,6.3,0.8c2,0.5,3.6,1.2,4.8,2
		c1.2,0.8,2.1,2,2.8,3.4H348C349.1,44,350.5,42.6,352.4,41.6z"/>
	<path class="st2" d="M326.2,37.7v3.5c-2.3-1.4-4.7-2.5-7.1-3.1c-2.5-0.6-5.1-0.9-8-0.9c-3.4,0-6.7,0.5-9.7,1.4
		c-3.1,0.9-5.5,2.2-7.2,3.8c-1.8,1.6-2.6,3.4-2.6,5.2c0,1.9,0.8,3.6,2.5,5.1c1.7,1.6,4,2.8,7.1,3.7s6.3,1.4,9.8,1.4
		c3,0,5.8-0.3,8.4-1c2.7-0.7,3.6-1.6,5.5-2.9V55c0,2.2,0.1,4.3-0.7,5.1c-0.9,1-1.5,1.7-4.1,2.9c-2.1,1.1-3.3,1.8-10.6,1.8
		c-6.6,0-10.9-1-12.4-1.7l-2,2c4.8,1,10.8,1.4,16.3,1.3c4.4,0,9-0.3,12.1-1.6c3.2-1.4,4.8-3.1,6.1-4.9c0.9-1.3,1.4-3.4,1.4-6.2V37.6
		L326.2,37.7L326.2,37.7z M321.5,53.3c-2.4,1.4-5.6,2.2-9.6,2.2c-3.9,0-7.2-0.7-9.6-2.2c-2.5-1.5-3.7-3.3-3.7-5.5
		c0-1.5,0.6-2.8,1.8-4.1c1.2-1.3,2.9-2.3,5-3s4.4-1.1,6.8-1.1s4.6,0.4,6.6,1.1c2,0.7,3.6,1.6,4.8,2.8c1.1,1.2,1.7,2.6,1.7,4.1
		C325.1,50,323.9,51.9,321.5,53.3z"/>
	<path class="st2" d="M398.8,70.2v2c-1.8-0.8-3.9-1.3-6.3-1.7s-5.1-0.6-8-0.6c-5.1,0-9.5,0.6-13.1,1.7c-3.7,1.1-5.5,2.5-5.5,4.1
		c0,1.6,1.8,3,5.4,4.1s7.9,1.7,13,1.7c2.9,0,5.5-0.2,7.9-0.5c2.5-0.4,4.6-0.9,6.5-1.7v1.9h4.6V70.1h-4.5V70.2z M397.3,78.1
		c-1.2,0.7-3,1.2-5.2,1.6c-2.3,0.4-4.7,0.6-7.2,0.6s-4.9-0.2-7-0.6c-2.2-0.4-3.9-1-5.2-1.7c-1.3-0.7-1.9-1.5-1.9-2.2
		c0-0.8,0.7-1.5,1.9-2.2c1.3-0.7,3-1.2,5.2-1.7c2.2-0.4,4.5-0.6,7.1-0.6c4,0,7.4,0.4,10.1,1.3c2.8,0.9,4.1,1.9,4.1,3.2
		C399.1,76.6,398.5,77.4,397.3,78.1z"/>
	<path class="st2" d="M209.7,79.6c-6.3-0.2-13.1-1.6-13-4.1l33.9,0.1c0-1.4-1.5-2.5-4.4-3.4c-4.1-1.3-9.5-1.9-16.3-1.9
		c-6.6,0-11.9,0.6-15.8,1.9c-3.1,1-4.7,2.1-4.7,3.4c0,4.4,15.6,4.9,20.8,5c6.4,0.1,10.3-0.1,17.2-0.6l-0.8-0.9
		C220.7,79.5,215.9,79.7,209.7,79.6z M201.8,72.5c2.7-0.5,5.9-0.7,9.7-0.7c2.3,0,4.5,0.1,6.5,0.3c2.1,0.2,3.7,0.5,5,0.8
		s2.2,0.8,2.9,1.3h-28.6C198.3,73.4,199.8,72.9,201.8,72.5z"/>
	<rect x="77.2" y="85.9" class="st5" width="338.3" height="0.7"/>
	<g>
		<path class="st3" d="M301.8,91.4h4.4l5.5,11.9l5.5-11.9h4.4l4,17.1h-4.4l-2.5-10.8l-5,10.8h-4l-5-10.8l-2.6,10.8h-4.4L301.8,91.4z
			"/>
		<path class="st3" d="M346.3,103h-14.1c0.2,0.9,0.7,1.6,1.6,2.1s2,0.8,3.4,0.8c1.6,0,3.1-0.4,4.2-1.2l3.7,1.3
			c-0.9,0.9-2,1.6-3.3,2.1s-2.8,0.7-4.6,0.7c-2.7,0-5-0.6-6.7-1.9s-2.6-2.8-2.6-4.7c0-1.9,0.9-3.5,2.6-4.8s3.9-1.9,6.5-1.9
			c2.8,0,5,0.6,6.7,1.9s2.6,3,2.6,5L346.3,103z M341.9,100.5c-0.3-0.7-0.9-1.3-1.7-1.7s-1.8-0.7-3-0.7s-2.3,0.2-3.2,0.7
			c-0.6,0.3-1.1,0.9-1.6,1.6h9.5V100.5z M337.8,89h5.2l-5.9,4.5h-3.2L337.8,89z"/>
		<path class="st3" d="M348.2,95.8h5.1l3.5,3.4l3.4-3.4h5l-5.9,5.9l6.7,6.7h-5.1l-4.2-4.1l-4.1,4.1h-5l6.6-6.6L348.2,95.8z"/>
		<path class="st3" d="M370,90.6c0.8,0,1.4,0.2,2,0.6s0.8,0.9,0.8,1.5s-0.3,1-0.8,1.4s-1.2,0.6-2,0.6s-1.4-0.2-2-0.6
			s-0.8-0.9-0.8-1.5s0.3-1,0.8-1.4C368.6,90.8,369.2,90.6,370,90.6z M367.8,95.8h4.4v12.6h-4.4V95.8z"/>
		<path class="st3" d="M393.3,98.4l-3.7,1.4c-0.7-0.5-1.4-0.9-2-1.1c-0.7-0.2-1.5-0.3-2.4-0.3c-1.6,0-3,0.4-4,1.1s-1.5,1.6-1.5,2.7
			s0.5,1.9,1.5,2.6s2.3,1,3.9,1c2,0,3.5-0.5,4.6-1.4l3.5,1.7c-1.9,1.8-4.5,2.6-8,2.6c-3.1,0-5.5-0.7-7.2-2s-2.6-2.9-2.6-4.6
			c0-1.2,0.4-2.3,1.3-3.4c0.8-1,2-1.8,3.5-2.4s3.2-0.9,5.1-0.9c1.7,0,3.3,0.2,4.7,0.7C391.3,96.7,392.4,97.4,393.3,98.4z"/>
		<path class="st3" d="M405.5,95.5c1.7,0,3.2,0.3,4.7,0.9s2.6,1.4,3.4,2.4s1.2,2.1,1.2,3.3c0,1.2-0.4,2.3-1.2,3.3
			c-0.8,1-1.9,1.8-3.4,2.4c-1.4,0.6-3,0.9-4.7,0.9c-2.5,0-4.7-0.6-6.4-1.9c-1.8-1.3-2.7-2.9-2.7-4.7c0-2,1-3.6,3-4.9
			C401.2,96.1,403.2,95.5,405.5,95.5z M405.6,98.5c-1.4,0-2.5,0.3-3.4,1s-1.4,1.6-1.4,2.6c0,1.1,0.4,2,1.3,2.7s2,1,3.4,1
			s2.5-0.3,3.4-1s1.4-1.6,1.4-2.7s-0.4-2-1.3-2.6S407,98.5,405.6,98.5z"/>
	</g>
</g>
</svg>
