<?xml version="1.0" encoding="utf-8"?>
<!-- Generator: Adobe Illustrator 23.0.2, SVG Export Plug-In . SVG Version: 6.00 Build 0)  -->
<svg version="1.1" id="Capa_1" xmlns="http://www.w3.org/2000/svg" xmlns:xlink="http://www.w3.org/1999/xlink" x="0px" y="0px"
	 viewBox="0 0 500 188" style="enable-background:new 0 0 500 188;" xml:space="preserve">
<style type="text/css">
	.st0{fill-rule:evenodd;clip-rule:evenodd;fill:#FFFFFF;}
	.st1{fill:#FFFFFF;}
</style>
<g>
	<g>
		<path class="st0" d="M118.4,44.9c5.6-11.2,13.3-21.5,22.1-30.2c2.3-2.3,4.5-2.7,8-1.8c11.2,3.1,20.1,7.2,29,13.7
			c1.3,0.9,1.5,3.5-0.2,4.2c-17.3,7.8-35.5,13.8-54.7,18C118.8,49.8,116.8,48.2,118.4,44.9z"/>
		<path class="st0" d="M77.6,24.6c2.3,18.3,2.9,36.8,2,55.5c0.1,2.9-2.6,3.5-4.3,2.1c-11.9-9.8-21.8-20.6-27.9-33.3
			c-1.2-2.5-2.1-4.4,0.1-6.8c7.9-8.6,15.6-14.6,26.1-19.8C75.5,21.4,77.5,22.7,77.6,24.6z"/>
		<path class="st0" d="M78,111.1c-15.1-2.3-29.7-5.7-43.6-11.3c-2.4-1-4.3-2.8-4.4-5.1c-0.5-12.9,1.5-23.3,6.9-34
			c1.3-2.1,3.7-2.1,5.9-0.3C54.7,70.3,68,87,81.7,107.3C82.8,109.1,80.9,111.5,78,111.1z"/>
		<path class="st0" d="M49.5,141.6c-8.5-8.8-12.8-17.6-17.1-28.4c-0.9-2.3,1.7-4.4,4.9-3.8c22,2.6,43.1,8.3,63.9,15.4
			c2.8,0.7,3.2,3.6,0.5,4.9c-13.7,6.4-27.5,11.2-42.3,13.7C55,144.1,52.6,144.8,49.5,141.6z"/>
		<path class="st0" d="M89.1,58.9c-2.2-13.9-2.9-27-1.2-39.4c0.4-2.5,1.1-4.6,4.5-5.6c9.9-2.9,21.1-4.6,33.1-3.7
			c2.6,0.2,3.6,3,2.1,4.7C118,31.2,106.4,46.1,93.3,60C92.1,61.4,89.4,61.1,89.1,58.9z"/>
		<path class="st0" d="M179.7,89.8c0-7.1-2.9-13.3-8.5-18.6c-5.7-5.3-12.3-7.9-19.8-7.9c-8.1,0-15,2.6-20.6,7.9
			c-5.7,5.3-8.5,11.9-8.5,19.7c0,7.4,2.8,13.7,8.5,18.8c5.6,5.1,12.4,7.7,20.4,7.7c7.7,0,14.3-2.7,20-8.1
			C176.8,103.9,179.7,97.4,179.7,89.8L179.7,89.8z M179.7,113.1c-3,3.9-7.1,6.9-12.2,9.1c-5.2,2.2-10.7,3.3-16.6,3.3
			c-11,0-20.3-3.4-27.6-10.1c-7.4-6.7-11-15-11-24.8c0-10,3.8-18.4,11.3-25.1c7.5-6.7,16.9-10.1,28.2-10.1c5.8,0,11.1,1.1,15.9,3.1
			c4.9,2.1,8.9,5.1,12.1,9v-7c0-1.4,1.4-3.7,4.1-3.7h1.1c2.7,0,4.2,2.2,4.2,3.7V120c0,1.3-1.9,3.7-4.2,3.7h-1.1
			c-2,0-4.1-2.3-4.1-3.7v-6.9H179.7z M208.4,56.8h1.1c2.4,0,4.1,2.5,4.1,3.7v3.9c3-3,6.4-5.3,10.3-6.7c3.9-1.5,8.4-2.2,13.4-2.2
			c5.5,0,10.5,0.9,14.8,2.7c4.3,1.8,7.7,4.4,10.2,7.8c1.7,2.4,3,5.2,3.7,8.4c0.8,3.2,1.1,8,1.1,14.3V120c0,1.5-2,3.7-4.1,3.7h-1.2
			c-2.1,0-4.2-2.2-4.2-3.7V86.2c0-7.9-1.7-13.6-5.1-17.2c-3.4-3.6-8.9-5.4-16.3-5.4c-4.4,0-8.3,0.8-11.6,2.4
			c-3.3,1.5-5.9,3.8-7.8,6.7c-1.2,1.8-2,3.9-2.5,6.3c-0.6,2.3-0.7,6.4-0.7,12.2V120c0,1.4-2,3.7-4.1,3.7h-1.1
			c-2.1,0-4.1-2.2-4.1-3.7V60.5C204.4,58.8,206,56.8,208.4,56.8L208.4,56.8z M346.1,90.9c0-7.6-2.8-14.2-8.5-19.5
			c-5.7-5.4-12.3-8.1-20-8.1c-7.9,0-14.7,2.6-20.4,7.7c-5.6,5.2-8.5,11.4-8.5,18.8c0,7.8,2.9,14.4,8.6,19.7c5.7,5.3,12.5,8,20.6,8
			c7.5,0,14-2.7,19.7-8C343.3,104.1,346.1,98,346.1,90.9L346.1,90.9z M345.9,67.4V52.5V38.8c0-2,2-3.7,4.1-3.7h1.5
			c2.2,0,4.1,1.5,4.1,3.7V120c0,1.3-1.9,3.7-4.1,3.7h-1.4c-2.2,0-4.2-2.3-4.2-3.7v-6.4c-3.4,3.7-7.6,6.6-12.6,8.7s-10.3,3.1-16,3.1
			c-10.8,0-20-3.4-27.4-10.2c-7.4-6.8-11.2-15.2-11.2-25c0-9.8,3.7-18.1,11-24.8s16.5-10.1,27.5-10.1c6,0,11.3,1,16.3,3.1
			C338.4,60.4,342.5,63.4,345.9,67.4L345.9,67.4z M434.4,89.8c0-7.1-2.9-13.3-8.5-18.6c-5.7-5.3-12.3-7.9-19.7-7.9
			c-8.1,0-14.9,2.6-20.6,7.9c-5.7,5.3-8.5,11.9-8.5,19.7c0,7.4,2.8,13.7,8.4,18.8c5.7,5.1,12.5,7.7,20.4,7.7c7.7,0,14.3-2.7,20-8.1
			C431.6,103.9,434.4,97.4,434.4,89.8L434.4,89.8z M434.4,113.1c-3,3.9-7.1,6.9-12.2,9.1s-10.7,3.3-16.6,3.3
			c-11.1,0-20.3-3.4-27.6-10.1c-7.4-6.7-11-15-11-24.8c0-10,3.8-18.4,11.2-25.1c7.5-6.7,16.9-10.1,28.2-10.1c5.8,0,11,1.1,15.9,3.1
			c4.9,2.1,8.9,5.1,12.1,9v-7c0-2.2,2.1-3.7,4.1-3.7h1.3c2.6,0,4.1,1.5,4.1,3.6v59.5c0,2.1-1.9,3.7-4.1,3.7h-1.2
			c-2,0-4.1-1.5-4.1-3.6L434.4,113.1L434.4,113.1z M459.3,120V38.8c0-2.1,2-3.7,4.1-3.7h1.4c2.2,0,4.1,1.8,4.1,3.6v81.2
			c0,2-2,3.7-4.1,3.7h-1.4C461.2,123.7,459.3,121.8,459.3,120z"/>
	</g>
	<g>
		<path class="st1" d="M134.9,139.7c0.6,0,1.2,0.1,1.9,0.2s1.3,0.3,1.9,0.5c0.6,0.2,1.1,0.4,1.5,0.6s0.7,0.4,0.8,0.7
			c0-0.6,0.2-1,0.5-1.4c0.3-0.3,0.8-0.5,1.4-0.5c1.3,0,2,0.6,2,1.9c0,0.2,0,0.8-0.1,1.7l0,0c-0.1,0.6-0.1,1.1-0.1,1.5
			s-0.1,0.7-0.1,0.9c0,0.6,0,1.2,0.1,1.9l0.1,1.3v0.4c0,1.3-0.7,2-2,2c-1.5,0-2.2-0.7-2.1-1.9c0-0.2,0-0.4,0-0.7c0-0.2,0-0.4,0-0.6
			c0.1-1.5-0.5-2.8-1.6-3.7c-1.1-0.9-2.5-1.4-4.3-1.4c-2.4,0-4.2,0.8-5.6,2.5c-1.3,1.7-2,4-2,6.9c0,3,0.7,5.4,2.1,7
			c1.4,1.7,3.3,2.5,5.8,2.5c1.3,0,2.5-0.3,3.5-0.8c1-0.6,1.8-1.3,2.2-2.2c0.1-0.3,0.2-0.7,0.3-1.1s0.1-0.9,0.1-1.4
			c0-1.4,0.7-2.1,2.2-2.1s2.3,0.7,2.3,2.1c0,2.6-1,4.8-3.1,6.4c-2,1.7-4.6,2.5-7.9,2.5c-3.7,0-6.7-1.1-8.9-3.4
			c-1.1-1.2-1.9-2.5-2.5-4c-0.5-1.5-0.8-3.2-0.8-5.1s0.3-3.7,0.8-5.2s1.4-2.9,2.5-4.2C128.1,140.9,131.1,139.7,134.9,139.7z"/>
		<path class="st1" d="M162.7,165.1c-2.9,0-5.2-0.9-6.9-2.6c-1.7-1.8-2.6-4.1-2.6-6.9c0-2.9,0.9-5.2,2.6-6.9c1.7-1.8,4.1-2.7,7-2.7
			c3,0,5.3,0.9,7.1,2.6c1.7,1.7,2.6,4,2.6,6.9s-0.9,5.3-2.6,7C168,164.2,165.7,165.1,162.7,165.1z M162.9,149.1
			c-1.6,0-2.9,0.5-3.8,1.5c-0.9,1-1.4,2.5-1.5,4.4v0.4c0,2,0.4,3.5,1.3,4.7c0.9,1.1,2.1,1.7,3.8,1.7c1.6,0,2.9-0.6,3.9-1.7
			s1.4-2.7,1.4-4.7C168.1,151.2,166.3,149.1,162.9,149.1z"/>
		<path class="st1" d="M185.5,146.5c1,0,1.6,0.4,1.7,1.1c1.5-1.1,3.3-1.7,5.5-1.7c1.5,0,2.9,0.3,4.3,1l0,0c1.4,0.7,2.3,1.6,2.8,2.6
			c0.4,0.8,0.6,1.9,0.6,3.2v6.5v1.7c0,0.4,0.1,0.6,0.3,0.7c0.1,0,0.3,0,0.5,0s0.4,0,0.5-0.1c0.1,0,0.3,0,0.4-0.1c0.1,0,0.2,0,0.4,0
			c0.5,0,0.9,0.1,1.3,0.4c0.4,0.3,0.6,0.7,0.6,1.1c0,0.5-0.2,0.9-0.6,1.2c-0.4,0.3-1,0.5-1.6,0.5c-0.1,0-0.4,0-0.6,0
			c-0.3,0-0.6,0-0.9-0.1c-0.4-0.1-0.8-0.1-1.3-0.1s-0.9,0-1.2,0s-0.6,0-0.8,0c-0.3,0-0.5,0-0.8,0.1c-0.6,0.1-1.1,0.1-1.5,0.2
			c-0.4,0-0.6,0.1-0.6,0.1c-1.5,0-2.2-0.6-2.2-1.7c0-1,0.7-1.5,2-1.5c0.1,0,0.2,0,0.3,0s0.2,0,0.3,0s0.2,0,0.3,0s0.2,0,0.3,0.1
			c0.1,0,0.1,0,0.2,0c0.1,0,0.1,0,0.2,0c0.2,0,0.3-0.4,0.3-1.4c0-0.3,0-0.6,0-0.9s0-0.6,0-0.9v-2.1v-2.6c0-1.1-0.1-1.9-0.2-2.4
			c-0.1-0.4-0.2-0.7-0.4-1s-0.5-0.5-0.8-0.7l0,0c-0.8-0.5-1.6-0.7-2.5-0.7c-1.8,0-3.1,0.6-3.9,1.7c-0.5,0.8-0.8,2.3-0.8,4.3v4.5
			c0,0.8,0,1.4,0.1,1.7c0.1,0.3,0.2,0.4,0.3,0.4c0,0,0.1,0,0.2,0c0.1,0,0.3,0,0.4-0.1c0.2,0,0.3-0.1,0.5-0.1c0.1,0,0.3,0,0.5,0
			c1.2,0,1.9,0.5,1.9,1.6s-0.7,1.6-2.2,1.6c-0.1,0-0.4,0-0.8-0.1c-0.4,0-0.8-0.1-1.3-0.1c-0.6-0.1-1.1-0.1-1.8-0.1
			c-0.2,0-0.5,0-0.9,0c-0.3,0-0.7,0.1-1.2,0.1l-0.9,0.1c-0.2,0.1-0.5,0.1-0.7,0.1s-0.4,0-0.4,0c-1.5,0-2.3-0.6-2.3-1.7
			c0-1,0.6-1.5,1.9-1.5c0.1,0,0.3,0,0.4,0c0.1,0,0.2,0,0.3,0.1c0.3,0.1,0.7,0.1,1.1,0.1c0.3,0,0.5-0.5,0.5-1.5c0-0.6,0-1.3,0-1.9
			s0-1.3,0-1.9v-4.1l-0.1-1.2c-0.1-0.5-0.1-0.9-0.2-1.1c-0.1-0.2-0.2-0.4-0.3-0.4s-0.2,0-0.4,0.1c-0.2,0-0.3,0-0.4,0.1
			c-0.2,0-0.3,0-0.4,0c-0.1,0-0.3,0-0.4,0c-1.4,0-2-0.5-2-1.6s0.8-1.6,2.3-1.6c0.1,0,0.2,0,0.3,0s0.2,0,0.3,0.1l1.3,0.2
			c0.1,0,0.3,0,0.5,0s0.3,0,0.5-0.1c0.2,0,0.4,0,0.6-0.1C185.1,146.5,185.3,146.5,185.5,146.5z"/>
		<path class="st1" d="M219.4,145.9c1.5,0,2.7,0.3,3.8,0.8c0.2-0.7,0.8-1,1.8-1c1.3,0,1.9,0.5,1.9,1.6c0,0.1,0,0.1,0,0.1
			s0,0.1,0,0.3c0,0.1,0,0.2,0,0.3c0,0.1,0,0.3,0,0.4c-0.1,0.2-0.1,0.4-0.1,0.6s-0.1,0.4-0.1,0.6c0,0.3,0.1,0.7,0.1,1.1
			c0.1,0.3,0.1,0.5,0.1,0.7s0,0.4,0,0.6c0,1.2-0.6,1.8-1.9,1.8c-1.2,0-1.9-0.5-2-1.6v-1.1c0-0.6-0.4-1-1.1-1.4
			c-0.7-0.4-1.6-0.6-2.6-0.6s-1.8,0.2-2.5,0.6s-1,1-1,1.7c0,0.6,0.3,1,0.8,1.4s1.2,0.6,2,0.7c0.4,0.1,0.8,0.1,1.1,0.1
			c0.4,0,0.7,0.1,1.1,0.2c4.8,0.6,7.1,2.3,7.1,5.3c0,1.8-0.8,3.2-2.4,4.4c-1.6,1.1-3.5,1.6-5.9,1.6c-1.8,0-3.4-0.4-4.9-1.1
			c-0.1,0.9-0.8,1.4-1.9,1.4c-1.4,0-2.1-0.6-2.1-1.9c0.1-0.4,0.1-0.6,0.1-0.9c0-0.2,0.1-0.4,0.1-0.6s0-0.3,0.1-0.5
			c0-0.2,0-0.4,0-0.8c0-0.3,0-0.5-0.1-0.8c0-0.3-0.1-0.6-0.1-0.9c-0.1-0.3-0.1-0.6-0.1-1c0-1.1,0.6-1.7,1.9-1.7
			c0.9,0,1.4,0.2,1.6,0.6c0.2,0.4,0.3,1,0.3,2c0,0.8,0.5,1.5,1.5,2s2.3,0.8,3.9,0.8c1.1,0,1.9-0.2,2.6-0.7c0.7-0.5,1-1.1,1-1.8
			c0-1.3-1.2-2-3.6-2.2c-1.4-0.1-2.7-0.3-3.7-0.6c-1.1-0.2-2-0.5-2.7-0.9s-1.3-0.9-1.7-1.5s-0.6-1.4-0.6-2.3s0.2-1.7,0.6-2.4
			c0.4-0.7,0.9-1.3,1.6-1.9c0.7-0.5,1.5-0.9,2.5-1.2C217.1,146.1,218.2,145.9,219.4,145.9z"/>
		<path class="st1" d="M245.9,157.1c0.1-1.2,0.7-1.9,2.1-1.9c1.3,0,2,0.7,2,2s-0.1,2.4-0.3,3.3s-0.5,1.6-0.9,2.2
			c-1.1,1.4-2.8,2.2-5.3,2.2c-1.1,0-2.1-0.2-2.9-0.5c-0.8-0.3-1.5-0.8-2-1.4c-0.7-1-1.1-2.5-1.1-4.6v-8.2c0-0.2,0-0.2-0.1-0.2h-1.2
			c-0.6,0-1.1-0.2-1.5-0.5s-0.6-0.7-0.6-1.2c0-0.4,0.2-0.8,0.6-1.2c0.4-0.3,0.8-0.5,1.4-0.5h1.5v-3.7c0-1.2,0.7-1.8,2.1-1.8
			c1.4,0,2,0.6,2,1.8v3.6l0,0h4.2c1.4,0,2.1,0.6,2.1,1.7c0,1.2-0.7,1.7-2.2,1.7h-4.3c0.1,0,0.1,0.1,0.1,0.2v8.4c0,2.1,0.7,3.1,2,3.1
			c1.4,0,2.1-0.8,2.1-2.4L245.9,157.1z"/>
		<path class="st1" d="M275,154c0,0.5,0,1,0,1.3s-0.1,0.5-0.3,0.7c-0.1,0.2-0.3,0.3-0.6,0.3c-0.3,0-0.6,0.1-1.1,0.1h-12.2
			c-0.1,0-0.2,0-0.2,0c0,1.6,0.5,2.9,1.6,3.9c1,1,2.3,1.5,3.8,1.5c1,0,1.9-0.2,2.7-0.7c0.8-0.5,1.3-1.1,1.6-1.8l0.4-1
			c0.2-0.4,0.4-0.6,0.7-0.9c0.3-0.2,0.7-0.3,1.2-0.3c1.4,0,2.1,0.6,2.1,1.8c0,1.6-0.9,3.1-2.8,4.3c-1.8,1.2-3.8,1.8-6.1,1.8
			c-2.9,0-5.2-0.8-6.9-2.6c-1.7-1.7-2.5-4-2.5-6.8s0.9-5.2,2.7-7.1c1.8-1.9,4.2-2.8,7.1-2.8c1.4,0,2.6,0.2,3.6,0.6
			c1.1,0.4,2,1,2.8,1.7C274.2,149.8,275,151.7,275,154z M270.6,153.1c0-1.1-0.4-2-1.3-2.8s-2-1.2-3.2-1.2s-2.4,0.4-3.5,1.3
			c-1,0.8-1.5,1.7-1.5,2.7H270.6z"/>
		<path class="st1" d="M289.7,160.4c0,0.8,0.1,1.3,0.4,1.3c0.1,0,0.1,0,0.2,0c0,0,0.1,0,0.2,0s0.2,0,0.3-0.1c0,0,0.1,0,0.2,0
			s0.1,0,0.2,0s0.1,0,0.1,0s0,0,0.1,0c0,0,0.1,0,0.2,0s0.2,0,0.2,0c1.3,0,1.9,0.5,1.9,1.6s-0.7,1.6-2.2,1.6c-0.2,0-0.5,0-0.8,0
			s-0.7-0.1-1.2-0.1c-0.4,0-0.8-0.1-1.2-0.1c-0.3,0-0.6,0-0.8,0c-0.2,0-0.4,0-0.7,0c-0.3,0-0.7,0.1-1.1,0.1
			c-0.4,0.1-0.7,0.1-1.1,0.1c-0.3,0-0.6,0-0.8,0h-0.2c-1.5,0-2.3-0.6-2.3-1.7c0-1,0.7-1.5,2-1.5h0.4c0.1,0,0.2,0,0.3,0
			c0.3,0,0.5,0.1,0.7,0.1c0.1,0,0.2,0,0.3,0c0.1,0,0.2-0.1,0.2-0.2c0.1-0.2,0.1-0.5,0.1-0.9s0-1,0.1-1.7c0-0.4,0-0.8,0-1.2
			c0-0.4,0-0.8,0-1.2l0.1-5.3c0-0.4,0-0.8,0-1.4c0-0.5,0-1.1,0-1.6c0-0.6,0-1.1,0-1.7c0-0.5,0-1,0-1.4l-0.1-1.4
			c-0.1-0.1-0.1-0.1-0.2-0.2s-0.2-0.1-0.2-0.1s-0.4,0.1-1,0.1c-0.1,0-0.3,0-0.4,0s-0.2,0-0.3,0c-1.3,0-2-0.5-2-1.6s0.7-1.6,2.2-1.6
			c0.1,0,0.3,0,0.5,0s0.3,0,0.4,0l0.8,0.1c0,0,0.1,0,0.2,0c0,0,0.1,0,0.2,0s0.3,0,0.4,0s0.2,0,0.3,0c0.1,0,0.2,0,0.4,0
			c0.2,0,0.4,0,0.6-0.1c0.3-0.1,0.5-0.1,0.7-0.1s0.4,0,0.6,0c1,0,1.5,0.5,1.5,1.5c0,0.1,0,0.2,0,0.3c0,0.1,0,0.2-0.1,0.2
			c-0.2,1.8-0.2,4.2-0.2,7.4L289.7,160.4z"/>
		<path class="st1" d="M316.9,164.9c-2,0-3.3-0.6-4-1.8c-1.4,1.3-3.4,1.9-6,1.9c-2.3,0-4.1-0.5-5.5-1.5s-2-2.3-2-4
			c0-1,0.3-1.9,0.8-2.7c0.5-0.8,1.3-1.4,2.2-1.9c0.7-0.4,1.4-0.6,1.9-0.7s1.6-0.3,3.1-0.4c2.1-0.2,3.4-0.5,3.9-0.8s0.7-0.8,0.7-1.6
			c0-0.8-0.3-1.4-0.9-1.8c-0.6-0.5-1.5-0.7-2.6-0.7s-2,0.3-2.9,0.8l0,0c-0.2,0.2-0.3,0.3-0.3,0.3l0,0c0.6,0.4,0.9,1,0.9,1.6
			s-0.3,1.1-0.8,1.5s-1.1,0.6-1.9,0.6c-0.9,0-1.6-0.2-2.1-0.7c-0.6-0.5-0.9-1.1-0.9-1.9c0-1.4,0.8-2.7,2.4-3.6
			c1.5-1,3.4-1.5,5.6-1.5c5.1,0,7.6,2.1,7.6,6.5v6.9c0,0.5,0,0.9,0,1.2c0,0.3,0,0.6,0.1,0.7c0.1,0.5,0.4,0.8,0.7,0.8
			c0.5,0,0.7-0.6,0.7-1.7v-1.7c0-1,0.6-1.5,1.8-1.5c1.3,0,1.9,0.7,1.9,2.1v0.2v1.9C321.4,163.7,319.9,164.9,316.9,164.9z M312,156.3
			c-0.2,0.1-0.3,0.1-0.5,0.2s-0.3,0.1-0.5,0.2c-0.7,0.2-1.9,0.4-3.4,0.5c-2.5,0.2-3.8,1-3.8,2.4c0,0.7,0.3,1.3,0.9,1.7
			c0.6,0.4,1.4,0.6,2.4,0.6c1.5,0,2.7-0.4,3.6-1.1s1.3-1.8,1.3-3.1V156.3z"/>
		<path class="st1" d="M338.5,152.8c0-0.5,0.2-1,0.4-1.3c0.3-0.3,0.7-0.6,1.4-0.7c-0.4-1.1-1.5-1.7-3.4-1.7c-1.6,0-2.8,0.6-3.8,1.7
			c-1,1.2-1.4,2.7-1.4,4.7s0.5,3.5,1.3,4.7c0.9,1.1,2.1,1.7,3.7,1.7c1,0,1.8-0.3,2.5-0.7c0.7-0.5,1.2-1.2,1.5-2.1l0.5-1.5
			c0.4-0.6,1-0.9,1.8-0.9c0.6,0,1.1,0.2,1.5,0.5s0.6,0.8,0.6,1.3c0,0.6-0.2,1.4-0.7,2.2c-0.5,0.9-1,1.6-1.6,2.2
			c-0.8,0.7-1.7,1.3-2.8,1.7c-1.1,0.4-2.3,0.6-3.5,0.6c-2.8,0-5.1-0.9-6.9-2.6c-1.7-1.7-2.5-4-2.5-6.7c0-2.9,0.9-5.2,2.6-7.1
			c1.8-1.8,4.2-2.7,7.1-2.7c2.2,0,4.1,0.5,5.6,1.6s2.2,2.5,2.2,4.1c0,1-0.3,1.8-0.9,2.4s-1.5,1-2.5,1c-0.8,0-1.5-0.2-2-0.7
			C338.8,153.9,338.5,153.4,338.5,152.8z"/>
		<path class="st1" d="M360.2,158.6c0,0.6,0,1,0,1.3s0,0.6,0,0.7c0.1,0.7,0.2,1.1,0.4,1.1c0,0,0,0,0.2,0s0.4-0.1,0.6-0.1l0,0
			c0.1,0,0.2,0,0.3-0.1c0.1,0,0.3,0,0.5,0c1.4,0,2.1,0.5,2.1,1.6c0,0.5-0.2,0.9-0.7,1.2c-0.4,0.3-1,0.5-1.7,0.5c-0.2,0-0.5,0-0.8,0
			s-0.7-0.1-1.1-0.1s-0.8-0.1-1.1-0.1c-0.3,0-0.5-0.1-0.7-0.1c-0.3,0-0.6,0-1,0s-0.8,0.1-1.2,0.1c-0.5,0-0.9,0.1-1.2,0.1
			c-0.3,0-0.6,0.1-0.8,0.1c-1.5,0-2.2-0.6-2.2-1.7s0.7-1.6,2-1.6c0.1,0,0.2,0,0.5,0s0.5,0,0.6,0.1c0.2,0.1,0.3,0.1,0.4,0.1
			s0.2,0,0.2,0c0.2,0,0.4-0.6,0.5-1.7v-8.7c-0.1-1.1-0.2-1.7-0.5-1.7c0,0-0.2,0-0.3,0c-0.1,0-0.3,0.1-0.5,0.1
			c-0.1,0.1-0.3,0.1-0.5,0.1s-0.3,0-0.4,0c-1.4,0-2.1-0.5-2.1-1.6s0.8-1.6,2.3-1.6c0.3,0,0.5,0,0.7,0s0.3,0,0.4,0
			c0.4,0.1,0.7,0.1,0.9,0.1c0.3,0,0.4,0,0.5,0s0.2,0,0.3,0c0.2,0,0.3,0,0.5-0.1l1.1-0.1c1.2,0,1.7,0.6,1.7,1.8v0.5
			c0,0.1,0,0.2,0,0.2c0,0.1,0,0.1,0,0.1c0,0.1,0,0.4,0,1c0,0.2,0,0.3,0,0.5s0,0.4,0,0.5c0,0.5,0,1,0,1.4c0,0.5,0,0.9,0,1.4v4.7
			H360.2z M357.5,145.7c-0.8,0-1.4-0.2-2-0.7c-0.5-0.5-0.8-1-0.8-1.7s0.3-1.2,0.8-1.7c0.5-0.4,1.2-0.7,2-0.7s1.5,0.2,2,0.7
			c0.6,0.5,0.8,1,0.8,1.7s-0.3,1.2-0.8,1.7C359,145.4,358.3,145.7,357.5,145.7z"/>
		<path class="st1" d="M379.6,165.1c-2.9,0-5.2-0.9-6.9-2.6c-1.7-1.8-2.6-4.1-2.6-6.9c0-2.9,0.9-5.2,2.6-6.9c1.7-1.8,4.1-2.7,7-2.7
			c3,0,5.3,0.9,7.1,2.6c1.7,1.7,2.6,4,2.6,6.9s-0.9,5.3-2.6,7C384.9,164.2,382.6,165.1,379.6,165.1z M379.8,149.1
			c-1.6,0-2.9,0.5-3.8,1.5s-1.4,2.5-1.5,4.4v0.4c0,2,0.4,3.5,1.3,4.7c0.9,1.1,2.1,1.7,3.8,1.7c1.6,0,3-0.6,3.9-1.7
			c1-1.1,1.4-2.7,1.4-4.7C385,151.2,383.2,149.1,379.8,149.1z"/>
		<path class="st1" d="M402.4,146.5c1,0,1.6,0.4,1.7,1.1c1.5-1.1,3.3-1.7,5.5-1.7c1.5,0,2.9,0.3,4.3,1l0,0c1.4,0.7,2.3,1.6,2.8,2.6
			c0.4,0.8,0.6,1.9,0.6,3.2v6.5v1.7c0,0.4,0.1,0.6,0.3,0.7c0.1,0,0.3,0,0.5,0s0.4,0,0.5-0.1c0.1,0,0.3,0,0.4-0.1c0.1,0,0.2,0,0.4,0
			c0.5,0,0.9,0.1,1.3,0.4s0.6,0.7,0.6,1.1c0,0.5-0.2,0.9-0.6,1.2c-0.4,0.3-1,0.5-1.6,0.5c-0.1,0-0.3,0-0.6,0c-0.3,0-0.6,0-0.9-0.1
			c-0.4-0.1-0.8-0.1-1.3-0.1s-0.9,0-1.2,0c-0.3,0-0.5,0-0.8,0s-0.5,0-0.8,0.1c-0.6,0.1-1.1,0.1-1.5,0.2c-0.4,0-0.6,0.1-0.6,0.1
			c-1.5,0-2.2-0.6-2.2-1.7c0-1,0.6-1.5,1.9-1.5c0.1,0,0.2,0,0.3,0c0.1,0,0.2,0,0.3,0c0.1,0,0.2,0,0.3,0c0.1,0,0.3,0,0.3,0.1
			c0.1,0,0.1,0,0.2,0s0.1,0,0.2,0c0.2,0,0.3-0.4,0.3-1.4c0-0.3,0-0.6,0-0.9s0-0.6,0-0.9v-2.1v-2.6c0-1.1-0.1-1.9-0.2-2.4
			c-0.1-0.4-0.2-0.7-0.4-1c-0.2-0.3-0.5-0.5-0.8-0.7l0,0c-0.8-0.5-1.6-0.7-2.5-0.7c-1.8,0-3.1,0.6-3.9,1.7c-0.5,0.8-0.8,2.3-0.8,4.3
			v4.5c0,0.8,0,1.4,0.1,1.7c0.1,0.3,0.2,0.4,0.3,0.4c0,0,0.1,0,0.2,0s0.3,0,0.4-0.1c0.2,0,0.3-0.1,0.5-0.1s0.3,0,0.6,0
			c1.2,0,1.9,0.5,1.9,1.6s-0.7,1.6-2.2,1.6c-0.1,0-0.4,0-0.8-0.1c-0.4,0-0.8-0.1-1.3-0.1c-0.5-0.1-1.1-0.1-1.8-0.1
			c-0.2,0-0.5,0-0.9,0c-0.3,0-0.7,0.1-1.2,0.1l-0.9,0.1c-0.2,0.1-0.5,0.1-0.7,0.1s-0.4,0-0.4,0c-1.5,0-2.3-0.6-2.3-1.7
			c0-1,0.6-1.5,1.9-1.5c0.1,0,0.2,0,0.3,0c0.1,0,0.2,0,0.3,0.1c0.3,0.1,0.7,0.1,1.1,0.1c0.3,0,0.5-0.5,0.5-1.5c0-0.6,0-1.3,0-1.9
			s0-1.3,0-1.9v-4.1l-0.1-1.2c-0.1-0.5-0.1-0.9-0.2-1.1s-0.1-0.4-0.3-0.4c-0.1,0-0.2,0-0.4,0.1c-0.2,0-0.3,0-0.4,0.1
			c-0.2,0-0.3,0-0.4,0s-0.3,0-0.4,0c-1.4,0-2-0.5-2-1.6s0.8-1.6,2.4-1.6c0.1,0,0.2,0,0.3,0c0.1,0,0.2,0,0.3,0.1l1.3,0.2
			c0.1,0,0.3,0,0.5,0s0.4,0,0.5-0.1c0.2,0,0.4,0,0.5-0.1C402,146.5,402.2,146.5,402.4,146.5z"/>
		<path class="st1" d="M446.3,154c0,0.5,0,1,0,1.3s-0.1,0.5-0.3,0.7c-0.1,0.2-0.3,0.3-0.6,0.3c-0.3,0-0.6,0.1-1.1,0.1h-12.2
			c-0.1,0-0.2,0-0.2,0c0,1.6,0.5,2.9,1.6,3.9c1,1,2.3,1.5,3.8,1.5c1,0,1.9-0.2,2.7-0.7c0.8-0.5,1.3-1.1,1.6-1.8l0.4-1
			c0.2-0.4,0.4-0.6,0.7-0.9c0.3-0.2,0.7-0.3,1.2-0.3c1.4,0,2.1,0.6,2.1,1.8c0,1.6-0.9,3.1-2.8,4.3c-1.8,1.2-3.8,1.8-6.1,1.8
			c-2.9,0-5.2-0.8-6.9-2.6c-1.7-1.7-2.5-4-2.5-6.8s0.9-5.2,2.7-7.1c1.8-1.9,4.2-2.8,7.1-2.8c1.3,0,2.6,0.2,3.6,0.6
			c1.1,0.4,2,1,2.8,1.7C445.4,149.8,446.3,151.7,446.3,154z M441.8,153.1c0-1.1-0.4-2-1.3-2.8s-2-1.2-3.2-1.2s-2.4,0.4-3.5,1.3
			c-1,0.8-1.6,1.7-1.6,2.7H441.8z"/>
		<path class="st1" d="M462.4,145.9c1.5,0,2.7,0.3,3.8,0.8c0.2-0.7,0.8-1,1.8-1c1.3,0,1.9,0.5,1.9,1.6c0,0.1,0,0.1,0,0.1
			s0,0.1,0,0.3c0,0.1,0,0.2,0,0.3c0,0.1,0,0.3,0,0.4c0,0.2-0.1,0.4-0.1,0.6s0,0.4,0,0.6c0,0.3,0,0.7,0.1,1.1
			c0.1,0.3,0.1,0.5,0.1,0.7s0,0.4,0,0.6c0,1.2-0.6,1.8-1.9,1.8c-1.2,0-1.9-0.5-1.9-1.6v-1.1c0-0.6-0.4-1-1.1-1.4s-1.6-0.6-2.6-0.6
			s-1.8,0.2-2.5,0.6s-1,1-1,1.7c0,0.6,0.3,1,0.8,1.4s1.2,0.6,2,0.7c0.4,0.1,0.8,0.1,1.1,0.1c0.4,0,0.7,0.1,1.1,0.2
			c4.8,0.6,7.1,2.3,7.1,5.3c0,1.8-0.8,3.2-2.4,4.4c-1.6,1.1-3.5,1.6-5.9,1.6c-1.8,0-3.4-0.4-4.9-1.1c-0.1,0.9-0.8,1.4-1.9,1.4
			c-1.4,0-2.1-0.6-2.1-1.9c0-0.4,0.1-0.6,0.1-0.9c0-0.2,0.1-0.4,0.1-0.6s0-0.3,0.1-0.5c0-0.2,0-0.4,0-0.8c0-0.3,0-0.5-0.1-0.8
			c0-0.3-0.1-0.6-0.1-0.9c-0.1-0.3-0.1-0.6-0.1-1c0-1.1,0.6-1.7,1.9-1.7c0.9,0,1.4,0.2,1.6,0.6s0.3,1,0.3,2c0,0.8,0.5,1.5,1.5,2
			s2.3,0.8,3.9,0.8c1.1,0,1.9-0.2,2.6-0.7s1-1.1,1-1.8c0-1.3-1.2-2-3.6-2.2c-1.4-0.1-2.7-0.3-3.7-0.6c-1.1-0.2-2-0.5-2.7-0.9
			s-1.3-0.9-1.7-1.5c-0.4-0.6-0.6-1.4-0.6-2.3s0.2-1.7,0.6-2.4c0.4-0.7,0.9-1.3,1.6-1.9c0.7-0.5,1.5-0.9,2.5-1.2
			C460.1,146.1,461.2,145.9,462.4,145.9z"/>
	</g>
</g>
</svg>
