<?xml version="1.0" encoding="utf-8"?>
<!-- Generator: Adobe Illustrator 23.0.2, SVG Export Plug-In . SVG Version: 6.00 Build 0)  -->
<svg version="1.1" id="Layer_1" xmlns="http://www.w3.org/2000/svg" xmlns:xlink="http://www.w3.org/1999/xlink" x="0px" y="0px"
	 viewBox="0 0 512 512" style="enable-background:new 0 0 512 512;" xml:space="preserve">
<style type="text/css">
	.st0{fill:#FFFFFF;}
</style>
<g>
	<path class="st0" d="M195.9,314.5c50.4,47.1,92.9,62.1,125.1,62.7c9,0.2,17.3-0.9,24.6-2.6c19-4.7,34.3-23.2,44-38.3
		c4.8-7.8,3.3-17.5-2.9-23.2c-2.1-1.9-4.5-3.5-7.4-4.3l-49.2-14c-6.4-1.9-13.3,0-18.2,4.8l-11.9,12.3c-5,5.2-12.8,6.8-19.4,4.2
		c-0.9-0.3-1.6-0.7-2.4-1c-0.3-0.2-0.5-0.3-0.9-0.3c-0.5-0.3-1.2-0.5-1.7-0.9c-0.3-0.2-0.7-0.3-1-0.5c-0.5-0.3-1.2-0.7-1.7-1
		c-0.3-0.2-0.7-0.3-1-0.7c-0.7-0.3-1.2-0.7-1.9-1.2c-0.3-0.2-0.7-0.3-1-0.7c-0.7-0.5-1.4-0.9-2.3-1.4c-0.3-0.2-0.5-0.3-0.9-0.5
		c-1-0.7-2.1-1.4-3.1-2.1l0,0c-2.3-1.6-4.5-3.1-6.9-4.8c-0.2-0.2-0.3-0.2-0.5-0.3c-1-0.7-2.1-1.6-2.9-2.3c-0.2-0.2-0.3-0.3-0.5-0.3
		c-1-0.9-2.1-1.6-3.1-2.4c-0.2-0.2-0.3-0.2-0.3-0.3c-1.2-0.9-2.3-1.9-3.5-2.8l0,0c-6.1-5-12.3-10.4-18-15.8l0,0
		c-13.5-12.8-25.4-25.8-30.6-35c-3.6-6.2-2.9-14.2,1.4-19.9l10.6-13.5c4.2-5.4,5-12.5,2.3-18.5L189.7,143
		c-5-11.3-19.2-14.5-28.6-6.6c-13.7,11.6-29.9,29.3-32,48.8C125.3,219,140.2,262.4,195.9,314.5z"/>
	<path class="st0" d="M509.7,252.6c0-1.6,0-3.1,0-4.7c0-1,0-1.9-0.2-2.9c0-1.4,0-2.8-0.2-4c0-1-0.2-2.1-0.2-3.1
		c0-1.2-0.2-2.6-0.2-3.8c0-1-0.2-2.1-0.3-3.1c-0.2-1.2-0.2-2.4-0.3-3.6c-0.2-1-0.2-2.1-0.3-3.1c-0.2-1.2-0.3-2.4-0.5-3.6
		c-0.2-1-0.3-2.1-0.5-3.1c-0.2-1.2-0.3-2.4-0.5-3.6c-0.2-1-0.3-2.1-0.5-3.1c-0.2-1.2-0.3-2.3-0.7-3.5c-0.2-1-0.3-2.1-0.7-3.1
		c-0.2-1.2-0.5-2.3-0.7-3.5c-0.2-1-0.5-2.1-0.7-3.1c-0.2-1.2-0.5-2.3-0.9-3.5c-0.2-1-0.5-2.1-0.9-3.1c-0.3-1.2-0.5-2.3-0.9-3.3
		c-0.3-1-0.5-2.1-0.9-3.1s-0.7-2.3-1-3.3c-0.3-1-0.7-2.1-0.9-3.1c-0.3-1-0.7-2.3-1-3.3c-0.3-1-0.7-2.1-1-2.9c-0.3-1-0.7-2.3-1.2-3.3
		c-0.3-1-0.7-1.9-1-2.9c-0.3-1-0.9-2.3-1.2-3.3c-0.3-1-0.7-1.9-1.2-2.9c-0.3-1-0.9-2.1-1.4-3.3c-0.3-1-0.9-1.9-1.2-2.9
		c-0.5-1-0.9-2.1-1.4-3.1c-0.3-0.9-0.9-1.9-1.2-2.8c-0.5-1-1-2.1-1.6-3.1c-0.5-0.9-0.9-1.9-1.4-2.8c-0.5-1-1-2.1-1.6-3.1
		c-0.5-0.9-0.9-1.7-1.4-2.6c-0.5-1-1-2.1-1.7-3.1c-0.5-0.9-0.9-1.7-1.4-2.6c-0.5-1-1.2-2.1-1.7-3.1c-0.5-0.9-1-1.7-1.4-2.6
		c-0.7-1-1.2-2.1-1.9-3.1c-0.5-0.9-1-1.6-1.6-2.4c-0.7-1-1.4-2.1-2.1-3.1c-0.5-0.7-1-1.6-1.6-2.3c-0.7-1-1.4-2.1-2.1-3.1
		c-0.5-0.7-1-1.6-1.6-2.3c-0.7-1-1.6-2.1-2.3-3.1c-0.5-0.7-1-1.4-1.6-2.1c-0.9-1-1.7-2.3-2.4-3.3c-0.5-0.7-1-1.2-1.4-1.9
		c-0.9-1.2-1.7-2.3-2.8-3.3c-0.5-0.5-0.9-1.2-1.4-1.7c-1-1.2-2.1-2.4-3.1-3.6c-0.3-0.5-0.7-0.9-1.2-1.4c-1.2-1.4-2.4-2.8-3.8-4.2
		c-0.2-0.2-0.3-0.3-0.5-0.7c-4.5-4.8-9-9.5-13.8-14l0,0l0,0c-48.1-45-113.7-71.3-185.5-68C108.2,7.1,1.5,119.6,1.9,254.8
		c0.2,41.2,10,80,27.7,114.4l-27,130.7c-0.3,1.7-0.2,3.6,0.3,5.2c0.2,0.3,0.2,0.5,0.3,0.9c0,0.2,0.2,0.3,0.2,0.5
		c0.2,0.2,0.2,0.3,0.3,0.5c0.2,0.2,0.2,0.3,0.3,0.5c0.2,0.2,0.2,0.3,0.3,0.5c0.2,0.2,0.3,0.3,0.5,0.5c0.2,0.2,0.3,0.3,0.5,0.5
		c0.2,0.2,0.2,0.2,0.3,0.3s0.3,0.2,0.3,0.3c0.2,0.2,0.3,0.2,0.3,0.3c0.2,0.2,0.3,0.2,0.5,0.3c0.2,0.2,0.3,0.3,0.7,0.3
		c0.2,0.2,0.3,0.2,0.5,0.3c0.2,0,0.3,0.2,0.5,0.2c0.2,0,0.3,0.2,0.5,0.2c0.2,0,0.3,0.2,0.5,0.2c0.2,0,0.5,0.2,0.7,0.2
		c0.2,0,0.3,0,0.5,0.2c0.3,0,0.5,0,0.9,0c0.2,0,0.3,0,0.5,0c0.2,0,0.5,0,0.7,0c0.2,0,0.3,0,0.5,0c0.3,0,0.7-0.2,0.9-0.2h0.2
		l128.1-30.3c32.9,16.4,69.9,25.8,109,26.5c105.8,1.6,198-62.3,237.3-154.2c1.4-3.1,2.6-6.2,3.8-9.3c0.3-0.7,0.5-1.4,0.9-2.1
		c7.8-20.9,12.8-43.1,14.9-66.3c0-0.2,0-0.5,0-0.7c0-0.7,0.2-1.6,0.2-2.3c0.2-3.5,0.5-7.1,0.5-10.6c0-2.4,0.2-4.7,0.2-7.1
		C509.7,254.1,509.7,253.2,509.7,252.6z M115.8,113.4c37.2-37.2,87.9-58.2,140.4-58.2c50.4,0,97.8,18.7,134.7,52.6l0,0
		c1.9,1.7,4,3.6,5.7,5.5c37.6,37.6,58.2,87.4,58.2,140.4c0,52.6-20.9,103.3-58.2,140.4c-37.6,37.6-87.4,58.2-140.4,58.2
		c-31,0-60.8-6.9-88.4-20.8l-17.8-8.8l-78.6,18.5l1.6-8l0,0l14.9-72.3l-8.8-17.1c-14.4-28-21.6-58.3-21.6-90.2
		C57.6,200.8,78.2,150.8,115.8,113.4z"/>
</g>
</svg>
